<?xml version="1.0" encoding="utf-8"?>
<!-- Generator: Adobe Illustrator 16.0.0, SVG Export Plug-In . SVG Version: 6.00 Build 0)  -->
<!DOCTYPE svg PUBLIC "-//W3C//DTD SVG 1.1//EN" "http://www.w3.org/Graphics/SVG/1.1/DTD/svg11.dtd">
<svg version="1.1" id="Layer_1" xmlns="http://www.w3.org/2000/svg" xmlns:xlink="http://www.w3.org/1999/xlink" x="0px" y="0px"
	 width="1000px" height="1000px" viewBox="0 0 1000 1000" enable-background="new 0 0 1000 1000" xml:space="preserve">
<g>
	<g id="XMLID_1_">
		<g>
			<rect x="952.39" y="571.53" width="47.61" height="47.609"/>
			<rect x="952.39" y="523.92" width="47.61" height="47.61"/>
			<rect x="952.39" y="476.07" width="47.61" height="47.85"/>
			<rect x="952.39" y="428.46" width="47.61" height="47.61"/>
			<rect x="952.39" y="380.86" width="47.61" height="47.6"/>
			<rect x="904.79" y="714.35" width="47.6" height="47.61"/>
			<rect x="904.79" y="666.74" width="47.6" height="47.609"/>
			<rect x="904.79" y="619.14" width="47.6" height="47.601"/>
			<rect x="904.79" y="571.53" width="47.6" height="47.609"/>
			<rect x="904.79" y="523.92" fill="#4A1715" width="47.6" height="47.61"/>
			<rect x="904.79" y="476.07" fill="#4A1715" width="47.6" height="47.85"/>
			<rect x="904.79" y="428.46" fill="#4A1715" width="47.6" height="47.61"/>
			<rect x="904.79" y="380.86" width="47.6" height="47.6"/>
			<rect x="904.79" y="333.25" width="47.6" height="47.61"/>
			<rect x="904.79" y="285.64" width="47.6" height="47.61"/>
			<rect x="904.79" y="238.04" width="47.6" height="47.6"/>
			<rect x="857.18" y="761.96" width="47.61" height="47.6"/>
			<rect x="857.18" y="714.35" width="47.61" height="47.61"/>
			<rect x="857.18" y="666.74" fill="#4A1715" width="47.61" height="47.609"/>
			<rect x="857.18" y="619.14" fill="#4A1715" width="47.61" height="47.601"/>
			<rect x="857.18" y="571.53" fill="#4A1715" width="47.61" height="47.609"/>
			<rect x="857.18" y="523.92" fill="#4A1715" width="47.61" height="47.61"/>
			<rect x="857.18" y="476.07" fill="#4A1715" width="47.61" height="47.85"/>
			<rect x="857.18" y="428.46" fill="#4A1715" width="47.61" height="47.61"/>
			<rect x="857.18" y="380.86" fill="#4A1715" width="47.61" height="47.6"/>
			<rect x="857.18" y="333.25" fill="#4A1715" width="47.61" height="47.61"/>
			<rect x="857.18" y="285.64" fill="#4A1715" width="47.61" height="47.61"/>
			<rect x="857.18" y="238.04" fill="#4A1715" width="47.61" height="47.6"/>
			<rect x="857.18" y="190.43" width="47.61" height="47.61"/>
			<rect x="809.57" y="809.56" width="47.609" height="47.61"/>
			<rect x="809.57" y="761.96" width="47.609" height="47.6"/>
			<rect x="809.57" y="714.35" fill="#4A1715" width="47.609" height="47.61"/>
			<rect x="809.57" y="666.74" fill="#4A1715" width="47.609" height="47.609"/>
			<rect x="809.57" y="619.14" fill="#4A1715" width="47.609" height="47.601"/>
			<rect x="809.57" y="571.53" fill="#4A1715" width="47.609" height="47.609"/>
			<rect x="809.57" y="523.92" fill="#4A1715" width="47.609" height="47.61"/>
			<rect x="809.57" y="476.07" fill="#4A1715" width="47.609" height="47.85"/>
			<rect x="809.57" y="428.46" fill="#4A1715" width="47.609" height="47.61"/>
			<rect x="809.57" y="380.86" fill="#4A1715" width="47.609" height="47.6"/>
			<rect x="809.57" y="333.25" fill="#4A1715" width="47.609" height="47.61"/>
			<rect x="809.57" y="285.64" fill="#4A1715" width="47.609" height="47.61"/>
			<rect x="809.57" y="238.04" fill="#4A1715" width="47.609" height="47.6"/>
			<rect x="809.57" y="190.43" width="47.609" height="47.61"/>
			<rect x="761.96" y="809.56" width="47.61" height="47.61"/>
			<rect x="761.96" y="761.96" fill="#4A1715" width="47.61" height="47.6"/>
			<rect x="761.96" y="714.35" fill="#4A1715" width="47.61" height="47.61"/>
			<rect x="761.96" y="666.74" fill="#4A1715" width="47.61" height="47.609"/>
			<rect x="761.96" y="619.14" fill="#611215" width="47.61" height="47.601"/>
			<rect x="761.96" y="571.53" fill="#611215" width="47.61" height="47.609"/>
			<rect x="761.96" y="523.92" fill="#611215" width="47.61" height="47.61"/>
			<rect x="761.96" y="476.07" fill="#611215" width="47.61" height="47.85"/>
			<rect x="761.96" y="428.46" fill="#611215" width="47.61" height="47.61"/>
			<rect x="761.96" y="380.86" fill="#611215" width="47.61" height="47.6"/>
			<rect x="761.96" y="333.25" fill="#611215" width="47.61" height="47.61"/>
			<rect x="761.96" y="285.64" fill="#4A1715" width="47.61" height="47.61"/>
			<rect x="761.96" y="238.04" fill="#4A1715" width="47.61" height="47.6"/>
			<rect x="761.96" y="190.43" fill="#4A1715" width="47.61" height="47.61"/>
			<rect x="761.96" y="142.82" width="47.61" height="47.61"/>
			<rect x="761.96" y="95.21" width="47.61" height="47.61"/>
			<rect x="714.36" y="904.78" width="47.6" height="47.6"/>
			<rect x="714.36" y="857.17" width="47.6" height="47.61"/>
			<rect x="714.36" y="809.56" fill="#4A1715" width="47.6" height="47.61"/>
			<rect x="714.36" y="761.96" fill="#4A1715" width="47.6" height="47.6"/>
			<rect x="714.36" y="714.35" fill="#4A1715" width="47.6" height="47.61"/>
			<rect x="714.36" y="666.74" fill="#611215" width="47.6" height="47.609"/>
			<rect x="714.36" y="619.14" fill="#611215" width="47.6" height="47.601"/>
			<rect x="714.36" y="571.53" fill="#611215" width="47.6" height="47.609"/>
			<rect x="714.36" y="523.92" fill="#611215" width="47.6" height="47.61"/>
			<rect x="714.36" y="476.07" fill="#611215" width="47.6" height="47.85"/>
			<rect x="714.36" y="428.46" fill="#611215" width="47.6" height="47.61"/>
			<rect x="714.36" y="380.86" fill="#611215" width="47.6" height="47.6"/>
			<rect x="714.36" y="333.25" fill="#611215" width="47.6" height="47.61"/>
			<rect x="714.36" y="285.64" fill="#611215" width="47.6" height="47.61"/>
			<rect x="714.36" y="238.04" fill="#611215" width="47.6" height="47.6"/>
			<rect x="714.36" y="190.43" fill="#4A1715" width="47.6" height="47.61"/>
			<rect x="714.36" y="142.82" fill="#4A1715" width="47.6" height="47.61"/>
			<rect x="714.36" y="95.21" fill="#4A1715" width="47.6" height="47.61"/>
			<rect x="714.36" y="47.61" width="47.6" height="47.6"/>
			<rect x="666.75" y="904.78" width="47.61" height="47.6"/>
			<rect x="666.75" y="857.17" fill="#4A1715" width="47.61" height="47.61"/>
			<rect x="666.75" y="809.56" fill="#4A1715" width="47.61" height="47.61"/>
			<rect x="666.75" y="761.96" fill="#611215" width="47.61" height="47.6"/>
			<rect x="666.75" y="714.35" fill="#611215" width="47.61" height="47.61"/>
			<rect x="666.75" y="666.74" fill="#611215" width="47.61" height="47.609"/>
			<rect x="666.75" y="619.14" fill="#611215" width="47.61" height="47.601"/>
			<rect x="666.75" y="571.53" fill="#611215" width="47.61" height="47.609"/>
			<rect x="666.75" y="523.92" fill="#611215" width="47.61" height="47.61"/>
			<rect x="666.75" y="476.07" fill="#611215" width="47.61" height="47.85"/>
			<rect x="666.75" y="428.46" fill="#611215" width="47.61" height="47.61"/>
			<rect x="666.75" y="380.86" fill="#611215" width="47.61" height="47.6"/>
			<rect x="666.75" y="333.25" fill="#611215" width="47.61" height="47.61"/>
			<rect x="666.75" y="285.64" fill="#611215" width="47.61" height="47.61"/>
			<rect x="666.75" y="238.04" fill="#611215" width="47.61" height="47.6"/>
			<rect x="666.75" y="190.43" fill="#611215" width="47.61" height="47.61"/>
			<rect x="666.75" y="142.82" fill="#4A1715" width="47.61" height="47.61"/>
			<rect x="666.75" y="95.21" fill="#4A1715" width="47.61" height="47.61"/>
			<rect x="666.75" y="47.61" width="47.61" height="47.6"/>
			<rect x="619.14" y="904.78" width="47.61" height="47.6"/>
			<rect x="619.14" y="857.17" fill="#4A1715" width="47.61" height="47.61"/>
			<rect x="619.14" y="809.56" fill="#611215" width="47.61" height="47.61"/>
			<rect x="619.14" y="761.96" fill="#611215" width="47.61" height="47.6"/>
			<rect x="619.14" y="714.35" fill="#611215" width="47.61" height="47.61"/>
			<rect x="619.14" y="666.74" fill="#611215" width="47.61" height="47.609"/>
			<rect x="619.14" y="619.14" fill="#611215" width="47.61" height="47.601"/>
			<rect x="619.14" y="571.53" fill="#611215" width="47.61" height="47.609"/>
			<rect x="619.14" y="523.92" fill="#611215" width="47.61" height="47.61"/>
			<rect x="619.14" y="476.07" fill="#611215" width="47.61" height="47.85"/>
			<rect x="619.14" y="428.46" fill="#611215" width="47.61" height="47.61"/>
			<rect x="619.14" y="380.86" fill="#611215" width="47.61" height="47.6"/>
			<rect x="619.14" y="333.25" fill="#611215" width="47.61" height="47.61"/>
			<rect x="619.14" y="285.64" fill="#611215" width="47.61" height="47.61"/>
			<rect x="619.14" y="238.04" fill="#611215" width="47.61" height="47.6"/>
			<rect x="619.14" y="190.43" fill="#611215" width="47.61" height="47.61"/>
			<rect x="619.14" y="142.82" fill="#4A1715" width="47.61" height="47.61"/>
			<rect x="619.14" y="95.21" fill="#4A1715" width="47.61" height="47.61"/>
			<rect x="619.14" y="47.61" width="47.61" height="47.6"/>
			<rect x="571.53" y="952.38" width="47.609" height="47.61"/>
			<rect x="571.53" y="904.78" width="47.609" height="47.6"/>
			<rect x="571.53" y="857.17" fill="#611215" width="47.609" height="47.61"/>
			<rect x="571.53" y="809.56" fill="#611215" width="47.609" height="47.61"/>
			<rect x="571.53" y="761.96" fill="#611215" width="47.609" height="47.6"/>
			<rect x="571.53" y="714.35" fill="#611215" width="47.609" height="47.61"/>
			<rect x="571.53" y="666.74" fill="#611215" width="47.609" height="47.609"/>
			<rect x="571.53" y="619.14" fill="#611215" width="47.609" height="47.601"/>
			<rect x="571.53" y="571.53" fill="#611215" width="47.609" height="47.609"/>
			<rect x="571.53" y="523.92" fill="#611215" width="47.609" height="47.61"/>
			<rect x="571.53" y="476.07" fill="#611215" width="47.609" height="47.85"/>
			<rect x="571.53" y="428.46" fill="#611215" width="47.609" height="47.61"/>
			<rect x="571.53" y="380.86" fill="#611215" width="47.609" height="47.6"/>
			<rect x="571.53" y="333.25" fill="#611215" width="47.609" height="47.61"/>
			<rect x="571.53" y="285.64" fill="#611215" width="47.609" height="47.61"/>
			<rect x="571.53" y="238.04" fill="#611215" width="47.609" height="47.6"/>
			<rect x="571.53" y="190.43" fill="#611215" width="47.609" height="47.61"/>
			<rect x="571.53" y="142.82" fill="#611215" width="47.609" height="47.61"/>
			<rect x="571.53" y="95.21" fill="#4A1715" width="47.609" height="47.61"/>
			<rect x="571.53" y="47.61" width="47.609" height="47.6"/>
			<rect x="571.53" width="47.609" height="47.61"/>
			<rect x="523.93" y="952.38" width="47.601" height="47.61"/>
			<rect x="523.93" y="904.78" fill="#611215" width="47.601" height="47.6"/>
			<rect x="523.93" y="857.17" fill="#611215" width="47.601" height="47.61"/>
			<rect x="523.93" y="809.56" fill="#611215" width="47.601" height="47.61"/>
			<rect x="523.93" y="761.96" fill="#611215" width="47.601" height="47.6"/>
			<rect x="523.93" y="714.35" fill="#611215" width="47.601" height="47.61"/>
			<rect x="523.93" y="666.74" fill="#611215" width="47.601" height="47.609"/>
			<rect x="523.93" y="619.14" fill="#611215" width="47.601" height="47.601"/>
			<rect x="523.93" y="571.53" fill="#611215" width="47.601" height="47.609"/>
			<rect x="523.93" y="523.92" fill="#611215" width="47.601" height="47.61"/>
			<rect x="523.93" y="476.07" fill="#611215" width="47.601" height="47.85"/>
			<rect x="523.93" y="428.46" fill="#611215" width="47.601" height="47.61"/>
			<rect x="523.93" y="380.86" fill="#611215" width="47.601" height="47.6"/>
			<rect x="523.93" y="333.25" fill="#611215" width="47.601" height="47.61"/>
			<rect x="523.93" y="285.64" fill="#611215" width="47.601" height="47.61"/>
			<rect x="523.93" y="238.04" fill="#611215" width="47.601" height="47.6"/>
			<rect x="523.93" y="190.43" fill="#611215" width="47.601" height="47.61"/>
			<rect x="523.93" y="142.82" fill="#611215" width="47.601" height="47.61"/>
			<rect x="523.93" y="95.21" fill="#4A1715" width="47.601" height="47.61"/>
			<rect x="523.93" y="47.61" fill="#4A1715" width="47.601" height="47.6"/>
			<rect x="523.93" width="47.601" height="47.61"/>
			<rect x="476.07" y="952.38" width="47.86" height="47.61"/>
			<rect x="476.07" y="904.78" fill="#611215" width="47.86" height="47.6"/>
			<rect x="476.07" y="857.17" fill="#611215" width="47.86" height="47.61"/>
			<rect x="476.07" y="809.56" fill="#611215" width="47.86" height="47.61"/>
			<rect x="476.07" y="761.96" fill="#611215" width="47.86" height="47.6"/>
			<rect x="476.07" y="714.35" fill="#611215" width="47.86" height="47.61"/>
			<rect x="476.07" y="666.74" fill="#611215" width="47.86" height="47.609"/>
			<rect x="476.07" y="619.14" fill="#611215" width="47.86" height="47.601"/>
			<rect x="476.07" y="571.53" fill="#611215" width="47.86" height="47.609"/>
			<rect x="476.07" y="523.92" fill="#611215" width="47.86" height="47.61"/>
			<rect x="476.07" y="476.07" fill="#611215" width="47.86" height="47.85"/>
			<rect x="476.07" y="428.46" fill="#611215" width="47.86" height="47.61"/>
			<rect x="476.07" y="380.86" fill="#611215" width="47.86" height="47.6"/>
			<rect x="476.07" y="333.25" fill="#611215" width="47.86" height="47.61"/>
			<rect x="476.07" y="285.64" fill="#611215" width="47.86" height="47.61"/>
			<rect x="476.07" y="238.04" fill="#611215" width="47.86" height="47.6"/>
			<rect x="476.07" y="190.43" fill="#611215" width="47.86" height="47.61"/>
			<rect x="476.07" y="142.82" fill="#611215" width="47.86" height="47.61"/>
			<rect x="476.07" y="95.21" fill="#611215" width="47.86" height="47.61"/>
			<rect x="476.07" y="47.61" fill="#4A1715" width="47.86" height="47.6"/>
			<rect x="476.07" width="47.86" height="47.61"/>
			<rect x="428.47" y="952.38" width="47.6" height="47.61"/>
			<rect x="428.47" y="904.78" fill="#611215" width="47.6" height="47.6"/>
			<rect x="428.47" y="857.17" fill="#611215" width="47.6" height="47.61"/>
			<rect x="428.47" y="809.56" fill="#611215" width="47.6" height="47.61"/>
			<rect x="428.47" y="761.96" fill="#611215" width="47.6" height="47.6"/>
			<rect x="428.47" y="714.35" fill="#611215" width="47.6" height="47.61"/>
			<rect x="428.47" y="666.74" fill="#611215" width="47.6" height="47.609"/>
			<rect x="428.47" y="619.14" fill="#611215" width="47.6" height="47.601"/>
			<rect x="428.47" y="571.53" fill="#611215" width="47.6" height="47.609"/>
			<rect x="428.47" y="523.92" fill="#611215" width="47.6" height="47.61"/>
			<rect x="428.47" y="476.07" fill="#611215" width="47.6" height="47.85"/>
			<rect x="428.47" y="428.46" fill="#611215" width="47.6" height="47.61"/>
			<rect x="428.47" y="380.86" fill="#611215" width="47.6" height="47.6"/>
			<rect x="428.47" y="333.25" fill="#611215" width="47.6" height="47.61"/>
			<rect x="428.47" y="285.64" fill="#611215" width="47.6" height="47.61"/>
			<rect x="428.47" y="238.04" fill="#611215" width="47.6" height="47.6"/>
			<rect x="428.47" y="190.43" fill="#611215" width="47.6" height="47.61"/>
			<rect x="428.47" y="142.82" fill="#611215" width="47.6" height="47.61"/>
			<rect x="428.47" y="95.21" fill="#611215" width="47.6" height="47.61"/>
			<rect x="428.47" y="47.61" fill="#4A1715" width="47.6" height="47.6"/>
			<rect x="428.47" width="47.6" height="47.61"/>
			<rect x="380.86" y="952.38" width="47.61" height="47.61"/>
			<rect x="380.86" y="904.78" width="47.61" height="47.6"/>
			<rect x="380.86" y="857.17" fill="#611215" width="47.61" height="47.61"/>
			<rect x="380.86" y="809.56" fill="#611215" width="47.61" height="47.61"/>
			<rect x="380.86" y="761.96" fill="#611215" width="47.61" height="47.6"/>
			<rect x="380.86" y="714.35" fill="#611215" width="47.61" height="47.61"/>
			<rect x="380.86" y="666.74" fill="#611215" width="47.61" height="47.609"/>
			<rect x="380.86" y="619.14" fill="#611215" width="47.61" height="47.601"/>
			<rect x="380.86" y="571.53" fill="#611215" width="47.61" height="47.609"/>
			<rect x="380.86" y="523.92" fill="#611215" width="47.61" height="47.61"/>
			<rect x="380.86" y="476.07" fill="#611215" width="47.61" height="47.85"/>
			<rect x="380.86" y="428.46" fill="#611215" width="47.61" height="47.61"/>
			<rect x="380.86" y="380.86" fill="#F1F2F2" width="47.61" height="47.6"/>
			<rect x="380.86" y="333.25" fill="#F1F2F2" width="47.61" height="47.61"/>
			<rect x="380.86" y="285.64" fill="#F1F2F2" width="47.61" height="47.61"/>
			<rect x="380.86" y="238.04" fill="#611215" width="47.61" height="47.6"/>
			<rect x="380.86" y="190.43" fill="#611215" width="47.61" height="47.61"/>
			<rect x="380.86" y="142.82" fill="#611215" width="47.61" height="47.61"/>
			<rect x="380.86" y="95.21" fill="#611215" width="47.61" height="47.61"/>
			<rect x="380.86" y="47.61" width="47.61" height="47.6"/>
			<rect x="380.86" width="47.61" height="47.61"/>
			<rect x="333.25" y="904.78" width="47.61" height="47.6"/>
			<rect x="333.25" y="857.17" fill="#611215" width="47.61" height="47.61"/>
			<rect x="333.25" y="809.56" fill="#611215" width="47.61" height="47.61"/>
			<rect x="333.25" y="761.96" fill="#611215" width="47.61" height="47.6"/>
			<rect x="333.25" y="714.35" fill="#611215" width="47.61" height="47.61"/>
			<rect x="333.25" y="666.74" fill="#611215" width="47.61" height="47.609"/>
			<rect x="333.25" y="619.14" fill="#611215" width="47.61" height="47.601"/>
			<rect x="333.25" y="571.53" fill="#611215" width="47.61" height="47.609"/>
			<rect x="333.25" y="523.92" fill="#611215" width="47.61" height="47.61"/>
			<rect x="333.25" y="476.07" fill="#611215" width="47.61" height="47.85"/>
			<rect x="333.25" y="428.46" fill="#F1F2F2" width="47.61" height="47.61"/>
			<rect x="333.25" y="380.86" fill="#F1F2F2" width="47.61" height="47.6"/>
			<rect x="333.25" y="333.25" fill="#F1F2F2" width="47.61" height="47.61"/>
			<rect x="333.25" y="285.64" fill="#F1F2F2" width="47.61" height="47.61"/>
			<rect x="333.25" y="238.04" fill="#F1F2F2" width="47.61" height="47.6"/>
			<rect x="333.25" y="190.43" fill="#611215" width="47.61" height="47.61"/>
			<rect x="333.25" y="142.82" fill="#611215" width="47.61" height="47.61"/>
			<rect x="333.25" y="95.21" fill="#611215" width="47.61" height="47.61"/>
			<rect x="333.25" y="47.61" width="47.61" height="47.6"/>
			<rect x="285.64" y="904.78" width="47.61" height="47.6"/>
			<rect x="285.64" y="857.17" fill="#611215" width="47.61" height="47.61"/>
			<rect x="285.64" y="809.56" fill="#611215" width="47.61" height="47.61"/>
			<rect x="285.64" y="761.96" fill="#611215" width="47.61" height="47.6"/>
			<rect x="285.64" y="714.35" fill="#611215" width="47.61" height="47.61"/>
			<rect x="285.64" y="666.74" fill="#611215" width="47.61" height="47.609"/>
			<rect x="285.64" y="619.14" fill="#611215" width="47.61" height="47.601"/>
			<rect x="285.64" y="571.53" fill="#611215" width="47.61" height="47.609"/>
			<rect x="285.64" y="523.92" fill="#611215" width="47.61" height="47.61"/>
			<rect x="285.64" y="476.07" fill="#611215" width="47.61" height="47.85"/>
			<rect x="285.64" y="428.46" fill="#F1F2F2" width="47.61" height="47.61"/>
			<rect x="285.64" y="380.86" fill="#F1F2F2" width="47.61" height="47.6"/>
			<rect x="285.64" y="333.25" fill="#F1F2F2" width="47.61" height="47.61"/>
			<rect x="285.64" y="285.64" fill="#F1F2F2" width="47.61" height="47.61"/>
			<rect x="285.64" y="238.04" fill="#F1F2F2" width="47.61" height="47.6"/>
			<rect x="285.64" y="190.43" fill="#611215" width="47.61" height="47.61"/>
			<rect x="285.64" y="142.82" fill="#611215" width="47.61" height="47.61"/>
			<rect x="285.64" y="95.21" fill="#611215" width="47.61" height="47.61"/>
			<rect x="285.64" y="47.61" width="47.61" height="47.6"/>
			<rect x="238.04" y="904.78" width="47.6" height="47.6"/>
			<rect x="238.04" y="857.17" width="47.6" height="47.61"/>
			<rect x="238.04" y="809.56" fill="#611215" width="47.6" height="47.61"/>
			<rect x="238.04" y="761.96" fill="#611215" width="47.6" height="47.6"/>
			<rect x="238.04" y="714.35" fill="#611215" width="47.6" height="47.61"/>
			<rect x="238.04" y="666.74" fill="#611215" width="47.6" height="47.609"/>
			<rect x="238.04" y="619.14" fill="#611215" width="47.6" height="47.601"/>
			<rect x="238.04" y="571.53" fill="#611215" width="47.6" height="47.609"/>
			<rect x="238.04" y="523.92" fill="#611215" width="47.6" height="47.61"/>
			<rect x="238.04" y="476.07" fill="#611215" width="47.6" height="47.85"/>
			<rect x="238.04" y="428.46" fill="#F1F2F2" width="47.6" height="47.61"/>
			<rect x="238.04" y="380.86" fill="#F1F2F2" width="47.6" height="47.6"/>
			<rect x="238.04" y="333.25" fill="#F1F2F2" width="47.6" height="47.61"/>
			<rect x="238.04" y="285.64" fill="#F1F2F2" width="47.6" height="47.61"/>
			<rect x="238.04" y="238.04" fill="#F1F2F2" width="47.6" height="47.6"/>
			<rect x="238.04" y="190.43" fill="#611215" width="47.6" height="47.61"/>
			<rect x="238.04" y="142.82" fill="#611215" width="47.6" height="47.61"/>
			<rect x="238.04" y="95.21" fill="#611215" width="47.6" height="47.61"/>
			<rect x="238.04" y="47.61" width="47.6" height="47.6"/>
			<rect x="190.43" y="809.56" width="47.61" height="47.61"/>
			<rect x="190.43" y="761.96" fill="#611215" width="47.61" height="47.6"/>
			<rect x="190.43" y="714.35" fill="#611215" width="47.61" height="47.61"/>
			<rect x="190.43" y="666.74" fill="#611215" width="47.61" height="47.609"/>
			<rect x="190.43" y="619.14" fill="#611215" width="47.61" height="47.601"/>
			<rect x="190.43" y="571.53" fill="#611215" width="47.61" height="47.609"/>
			<rect x="190.43" y="523.92" fill="#611215" width="47.61" height="47.61"/>
			<rect x="190.43" y="476.07" fill="#611215" width="47.61" height="47.85"/>
			<rect x="190.43" y="428.46" fill="#611215" width="47.61" height="47.61"/>
			<rect x="190.43" y="380.86" fill="#F1F2F2" width="47.61" height="47.6"/>
			<rect x="190.43" y="333.25" fill="#F1F2F2" width="47.61" height="47.61"/>
			<rect x="190.43" y="285.64" fill="#F1F2F2" width="47.61" height="47.61"/>
			<rect x="190.43" y="238.04" fill="#611215" width="47.61" height="47.6"/>
			<rect x="190.43" y="190.43" fill="#611215" width="47.61" height="47.61"/>
			<rect x="190.43" y="142.82" width="47.61" height="47.61"/>
			<rect x="190.43" y="95.21" width="47.61" height="47.61"/>
			<rect x="142.82" y="809.56" width="47.61" height="47.61"/>
			<rect x="142.82" y="761.96" width="47.61" height="47.6"/>
			<rect x="142.82" y="714.35" fill="#611215" width="47.61" height="47.61"/>
			<rect x="142.82" y="666.74" fill="#611215" width="47.61" height="47.609"/>
			<rect x="142.82" y="619.14" fill="#611215" width="47.61" height="47.601"/>
			<rect x="142.82" y="571.53" fill="#611215" width="47.61" height="47.609"/>
			<rect x="142.82" y="523.92" fill="#611215" width="47.61" height="47.61"/>
			<rect x="142.82" y="476.07" fill="#611215" width="47.61" height="47.85"/>
			<rect x="142.82" y="428.46" fill="#611215" width="47.61" height="47.61"/>
			<rect x="142.82" y="380.86" fill="#611215" width="47.61" height="47.6"/>
			<rect x="142.82" y="333.25" fill="#611215" width="47.61" height="47.61"/>
			<rect x="142.82" y="285.64" fill="#611215" width="47.61" height="47.61"/>
			<rect x="142.82" y="238.04" fill="#611215" width="47.61" height="47.6"/>
			<rect x="142.82" y="190.43" width="47.61" height="47.61"/>
			<rect x="142.82" y="142.82" width="47.61" height="47.61"/>
			<rect x="95.21" y="761.96" width="47.61" height="47.6"/>
			<rect x="95.21" y="714.35" fill="#611215" width="47.61" height="47.61"/>
			<rect x="95.21" y="666.74" fill="#611215" width="47.61" height="47.609"/>
			<rect x="95.21" y="619.14" fill="#611215" width="47.61" height="47.601"/>
			<rect x="95.21" y="571.53" fill="#611215" width="47.61" height="47.609"/>
			<rect x="95.21" y="523.92" fill="#611215" width="47.61" height="47.61"/>
			<rect x="95.21" y="476.07" fill="#611215" width="47.61" height="47.85"/>
			<rect x="95.21" y="428.46" fill="#611215" width="47.61" height="47.61"/>
			<rect x="95.21" y="380.86" fill="#611215" width="47.61" height="47.6"/>
			<rect x="95.21" y="333.25" fill="#611215" width="47.61" height="47.61"/>
			<rect x="95.21" y="285.64" fill="#611215" width="47.61" height="47.61"/>
			<rect x="95.21" y="238.04" width="47.61" height="47.6"/>
			<rect x="95.21" y="190.43" width="47.61" height="47.61"/>
			<rect x="47.61" y="714.35" width="47.6" height="47.61"/>
			<rect x="47.61" y="666.74" width="47.6" height="47.609"/>
			<rect x="47.61" y="619.14" width="47.6" height="47.601"/>
			<rect x="47.61" y="571.53" width="47.6" height="47.609"/>
			<rect x="47.61" y="523.92" fill="#611215" width="47.6" height="47.61"/>
			<rect x="47.61" y="476.07" fill="#611215" width="47.6" height="47.85"/>
			<rect x="47.61" y="428.46" fill="#611215" width="47.6" height="47.61"/>
			<rect x="47.61" y="380.86" width="47.6" height="47.6"/>
			<rect x="47.61" y="333.25" width="47.6" height="47.61"/>
			<rect x="47.61" y="285.64" width="47.6" height="47.61"/>
			<rect y="571.53" width="47.61" height="47.609"/>
			<rect y="523.92" width="47.61" height="47.61"/>
			<rect y="476.07" width="47.61" height="47.85"/>
			<rect y="428.46" width="47.61" height="47.61"/>
			<rect y="380.86" width="47.61" height="47.6"/>
		</g>
		<g>
		</g>
	</g>
</g>
</svg>
