<?xml version="1.0" encoding="utf-8"?>
<!-- Generator: Adobe Illustrator 16.0.0, SVG Export Plug-In . SVG Version: 6.00 Build 0)  -->
<!DOCTYPE svg PUBLIC "-//W3C//DTD SVG 1.1//EN" "http://www.w3.org/Graphics/SVG/1.1/DTD/svg11.dtd">
<svg version="1.1" id="Layer_1" xmlns="http://www.w3.org/2000/svg" xmlns:xlink="http://www.w3.org/1999/xlink" x="0px" y="0px"
	 width="2400px" height="1600px" viewBox="0 0 2400 1600" enable-background="new 0 0 2400 1600" xml:space="preserve">
<g>
	<g id="XMLID_21_">
		<g>
			<rect x="762.507" y="839.066" width="17.917" height="15.859"/>
			<rect x="762.507" y="823.603" width="17.917" height="15.464"/>
			<rect x="762.507" y="807.743" width="17.917" height="15.859"/>
			<rect x="762.507" y="792.279" width="17.917" height="15.464"/>
			<rect x="762.507" y="776.419" width="17.917" height="15.86"/>
			<rect x="762.507" y="760.956" width="17.917" height="15.463"/>
			<rect x="762.507" y="745.096" width="17.917" height="15.86"/>
			<rect x="762.507" y="729.633" width="17.917" height="15.463"/>
			<rect x="762.507" y="713.773" width="17.917" height="15.86"/>
			<rect x="762.507" y="697.923" width="17.917" height="15.85"/>
			<rect x="744.025" y="839.066" width="18.482" height="15.859"/>
			<rect x="744.025" y="823.603" fill="#734A1E" width="18.482" height="15.464"/>
			<rect x="744.025" y="807.743" fill="#331711" width="18.482" height="15.859"/>
			<rect x="744.025" y="792.279" fill="#331711" width="18.482" height="15.464"/>
			<rect x="744.025" y="776.419" fill="#AF6A28" width="18.482" height="15.86"/>
			<rect x="744.025" y="760.956" fill="#734A1E" width="18.482" height="15.463"/>
			<rect x="744.025" y="745.096" fill="#734A1E" width="18.482" height="15.86"/>
			<rect x="744.025" y="729.633" fill="#331711" width="18.482" height="15.463"/>
			<rect x="744.025" y="713.773" fill="#AF6A28" width="18.482" height="15.86"/>
			<rect x="744.025" y="697.923" width="18.482" height="15.85"/>
			<rect x="726.107" y="839.066" width="17.918" height="15.859"/>
			<rect x="726.107" y="823.603" fill="#AF6A28" width="17.918" height="15.464"/>
			<rect x="726.107" y="807.743" fill="#734A1E" width="17.918" height="15.859"/>
			<rect x="726.107" y="792.279" fill="#331711" width="17.918" height="15.464"/>
			<rect x="726.107" y="776.419" fill="#331711" width="17.918" height="15.86"/>
			<rect x="726.107" y="760.956" fill="#AF6A28" width="17.918" height="15.463"/>
			<rect x="726.107" y="745.096" fill="#331711" width="17.918" height="15.86"/>
			<rect x="726.107" y="729.633" fill="#331711" width="17.918" height="15.463"/>
			<rect x="726.107" y="713.773" fill="#734A1E" width="17.918" height="15.86"/>
			<rect x="726.107" y="697.923" width="17.918" height="15.85"/>
			<rect x="707.635" y="839.066" width="18.472" height="15.859"/>
			<rect x="707.635" y="823.603" fill="#734A1E" width="18.472" height="15.464"/>
			<rect x="707.635" y="807.743" fill="#AF6A28" width="18.472" height="15.859"/>
			<rect x="707.635" y="792.279" fill="#331711" width="18.472" height="15.464"/>
			<rect x="707.635" y="776.419" fill="#331711" width="18.472" height="15.86"/>
			<rect x="707.635" y="760.956" fill="#331711" width="18.472" height="15.463"/>
			<rect x="707.635" y="745.096" fill="#331711" width="18.472" height="15.86"/>
			<rect x="707.635" y="729.633" fill="#331711" width="18.472" height="15.463"/>
			<rect x="707.635" y="713.773" fill="#734A1E" width="18.472" height="15.86"/>
			<rect x="707.635" y="697.923" width="18.472" height="15.85"/>
			<rect x="689.717" y="839.066" width="17.917" height="15.859"/>
			<rect x="689.717" y="823.603" fill="#734A1E" width="17.917" height="15.464"/>
			<rect x="689.717" y="807.743" fill="#AF6A28" width="17.917" height="15.859"/>
			<rect x="689.717" y="792.279" fill="#AF6A28" width="17.917" height="15.464"/>
			<rect x="689.717" y="776.419" fill="#331711" width="17.917" height="15.86"/>
			<rect x="689.717" y="760.956" fill="#331711" width="17.917" height="15.463"/>
			<rect x="689.717" y="745.096" fill="#331711" width="17.917" height="15.86"/>
			<rect x="689.717" y="729.633" fill="#331711" width="17.917" height="15.463"/>
			<rect x="689.717" y="713.773" fill="#AF6A28" width="17.917" height="15.86"/>
			<rect x="689.717" y="697.923" width="17.917" height="15.85"/>
			<rect x="671.235" y="839.066" width="18.482" height="15.859"/>
			<rect x="671.235" y="823.603" fill="#734A1E" width="18.482" height="15.464"/>
			<rect x="671.235" y="807.743" fill="#AF6A28" width="18.482" height="15.859"/>
			<rect x="671.235" y="792.279" fill="#331711" width="18.482" height="15.464"/>
			<rect x="671.235" y="776.419" fill="#331711" width="18.482" height="15.86"/>
			<rect x="671.235" y="760.956" fill="#AF6A28" width="18.482" height="15.463"/>
			<rect x="671.235" y="745.096" fill="#331711" width="18.482" height="15.86"/>
			<rect x="671.235" y="729.633" fill="#331711" width="18.482" height="15.463"/>
			<rect x="671.235" y="713.773" fill="#331711" width="18.482" height="15.86"/>
			<rect x="671.235" y="697.923" width="18.482" height="15.85"/>
			<rect x="653.317" y="839.066" width="17.918" height="15.859"/>
			<rect x="653.317" y="823.603" fill="#AF6A28" width="17.918" height="15.464"/>
			<rect x="653.317" y="807.743" fill="#331711" width="17.918" height="15.859"/>
			<rect x="653.317" y="792.279" fill="#331711" width="17.918" height="15.464"/>
			<rect x="653.317" y="776.419" fill="#AF6A28" width="17.918" height="15.86"/>
			<rect x="653.317" y="760.956" fill="#AF6A28" width="17.918" height="15.463"/>
			<rect x="653.317" y="745.096" fill="#AF6A28" width="17.918" height="15.86"/>
			<rect x="653.317" y="729.633" fill="#AF6A28" width="17.918" height="15.463"/>
			<rect x="653.317" y="713.773" fill="#AF6A28" width="17.918" height="15.86"/>
			<rect x="653.317" y="697.923" width="17.918" height="15.85"/>
			<rect x="634.845" y="839.066" width="18.472" height="15.859"/>
			<rect x="634.845" y="823.603" fill="#AF6A28" width="18.472" height="15.464"/>
			<rect x="634.845" y="807.743" fill="#331711" width="18.472" height="15.859"/>
			<rect x="634.845" y="792.279" fill="#734A1E" width="18.472" height="15.464"/>
			<rect x="634.845" y="776.419" fill="#AF6A28" width="18.472" height="15.86"/>
			<rect x="634.845" y="760.956" fill="#AF6A28" width="18.472" height="15.463"/>
			<rect x="634.845" y="745.096" fill="#AF6A28" width="18.472" height="15.86"/>
			<rect x="634.845" y="729.633" fill="#734A1E" width="18.472" height="15.463"/>
			<rect x="634.845" y="713.773" fill="#734A1E" width="18.472" height="15.86"/>
			<rect x="634.845" y="697.923" width="18.472" height="15.85"/>
			<rect x="616.918" y="839.066" width="17.927" height="15.859"/>
			<rect x="616.918" y="823.603" width="17.927" height="15.464"/>
			<rect x="616.918" y="807.743" width="17.927" height="15.859"/>
			<rect x="616.918" y="792.279" width="17.927" height="15.464"/>
			<rect x="616.918" y="776.419" width="17.927" height="15.86"/>
			<rect x="616.918" y="760.956" width="17.927" height="15.463"/>
			<rect x="616.918" y="745.096" width="17.927" height="15.86"/>
			<rect x="616.918" y="729.633" width="17.927" height="15.463"/>
			<rect x="616.918" y="713.773" width="17.927" height="15.86"/>
			<rect x="616.918" y="697.923" width="17.927" height="15.85"/>
		</g>
		<g>
		</g>
	</g>
</g>
</svg>
